<svg id="visual" viewBox="0 0 1920 1080" width="1920" height="1080" xmlns="http://www.w3.org/2000/svg" xmlns:xlink="http://www.w3.org/1999/xlink" version="1.1"><rect x="0" y="0" width="1920" height="1080" fill="#001220"></rect><path d="M0 717L32 709.5C64 702 128 687 192 694.5C256 702 320 732 384 725.2C448 718.3 512 674.7 576 666.2C640 657.7 704 684.3 768 707.2C832 730 896 749 960 751C1024 753 1088 738 1152 730C1216 722 1280 721 1344 712.7C1408 704.3 1472 688.7 1536 695C1600 701.3 1664 729.7 1728 744C1792 758.3 1856 758.7 1888 758.8L1920 759L1920 1081L1888 1081C1856 1081 1792 1081 1728 1081C1664 1081 1600 1081 1536 1081C1472 1081 1408 1081 1344 1081C1280 1081 1216 1081 1152 1081C1088 1081 1024 1081 960 1081C896 1081 832 1081 768 1081C704 1081 640 1081 576 1081C512 1081 448 1081 384 1081C320 1081 256 1081 192 1081C128 1081 64 1081 32 1081L0 1081Z" fill="#04244a"></path><path d="M0 675L32 687.5C64 700 128 725 192 733C256 741 320 732 384 738.2C448 744.3 512 765.7 576 758.2C640 750.7 704 714.3 768 698.2C832 682 896 686 960 686.2C1024 686.3 1088 682.7 1152 681C1216 679.3 1280 679.7 1344 685.8C1408 692 1472 704 1536 707.2C1600 710.3 1664 704.7 1728 712.2C1792 719.7 1856 740.3 1888 750.7L1920 761L1920 1081L1888 1081C1856 1081 1792 1081 1728 1081C1664 1081 1600 1081 1536 1081C1472 1081 1408 1081 1344 1081C1280 1081 1216 1081 1152 1081C1088 1081 1024 1081 960 1081C896 1081 832 1081 768 1081C704 1081 640 1081 576 1081C512 1081 448 1081 384 1081C320 1081 256 1081 192 1081C128 1081 64 1081 32 1081L0 1081Z" fill="#0b355f"></path><path d="M0 833L32 818.5C64 804 128 775 192 759.2C256 743.3 320 740.7 384 755.7C448 770.7 512 803.3 576 820.5C640 837.7 704 839.3 768 840.8C832 842.3 896 843.7 960 844.2C1024 844.7 1088 844.3 1152 842.7C1216 841 1280 838 1344 826.7C1408 815.3 1472 795.7 1536 780.3C1600 765 1664 754 1728 755.7C1792 757.3 1856 771.7 1888 778.8L1920 786L1920 1081L1888 1081C1856 1081 1792 1081 1728 1081C1664 1081 1600 1081 1536 1081C1472 1081 1408 1081 1344 1081C1280 1081 1216 1081 1152 1081C1088 1081 1024 1081 960 1081C896 1081 832 1081 768 1081C704 1081 640 1081 576 1081C512 1081 448 1081 384 1081C320 1081 256 1081 192 1081C128 1081 64 1081 32 1081L0 1081Z" fill="#114776"></path><path d="M0 796L32 793.7C64 791.3 128 786.7 192 788C256 789.3 320 796.7 384 794.5C448 792.3 512 780.7 576 790.5C640 800.3 704 831.7 768 846.8C832 862 896 861 960 854.2C1024 847.3 1088 834.7 1152 827.8C1216 821 1280 820 1344 814.3C1408 808.7 1472 798.3 1536 795.7C1600 793 1664 798 1728 801.3C1792 804.7 1856 806.3 1888 807.2L1920 808L1920 1081L1888 1081C1856 1081 1792 1081 1728 1081C1664 1081 1600 1081 1536 1081C1472 1081 1408 1081 1344 1081C1280 1081 1216 1081 1152 1081C1088 1081 1024 1081 960 1081C896 1081 832 1081 768 1081C704 1081 640 1081 576 1081C512 1081 448 1081 384 1081C320 1081 256 1081 192 1081C128 1081 64 1081 32 1081L0 1081Z" fill="#16598c"></path><path d="M0 902L32 896.8C64 891.7 128 881.3 192 878.5C256 875.7 320 880.3 384 882.8C448 885.3 512 885.7 576 876.2C640 866.7 704 847.3 768 841C832 834.7 896 841.3 960 844.8C1024 848.3 1088 848.7 1152 845.3C1216 842 1280 835 1344 831.8C1408 828.7 1472 829.3 1536 839.5C1600 849.7 1664 869.3 1728 877.2C1792 885 1856 881 1888 879L1920 877L1920 1081L1888 1081C1856 1081 1792 1081 1728 1081C1664 1081 1600 1081 1536 1081C1472 1081 1408 1081 1344 1081C1280 1081 1216 1081 1152 1081C1088 1081 1024 1081 960 1081C896 1081 832 1081 768 1081C704 1081 640 1081 576 1081C512 1081 448 1081 384 1081C320 1081 256 1081 192 1081C128 1081 64 1081 32 1081L0 1081Z" fill="#1a6da3"></path><path d="M0 865L32 875.3C64 885.7 128 906.3 192 915.7C256 925 320 923 384 911.7C448 900.3 512 879.7 576 881.7C640 883.7 704 908.3 768 915C832 921.7 896 910.3 960 905.2C1024 900 1088 901 1152 897C1216 893 1280 884 1344 878.8C1408 873.7 1472 872.3 1536 881C1600 889.7 1664 908.3 1728 906C1792 903.7 1856 880.3 1888 868.7L1920 857L1920 1081L1888 1081C1856 1081 1792 1081 1728 1081C1664 1081 1600 1081 1536 1081C1472 1081 1408 1081 1344 1081C1280 1081 1216 1081 1152 1081C1088 1081 1024 1081 960 1081C896 1081 832 1081 768 1081C704 1081 640 1081 576 1081C512 1081 448 1081 384 1081C320 1081 256 1081 192 1081C128 1081 64 1081 32 1081L0 1081Z" fill="#1c81ba"></path><path d="M0 923L32 920C64 917 128 911 192 915.5C256 920 320 935 384 942.7C448 950.3 512 950.7 576 948.8C640 947 704 943 768 935.8C832 928.7 896 918.3 960 920.5C1024 922.7 1088 937.3 1152 939.5C1216 941.7 1280 931.3 1344 924C1408 916.7 1472 912.3 1536 915C1600 917.7 1664 927.3 1728 936.7C1792 946 1856 955 1888 959.5L1920 964L1920 1081L1888 1081C1856 1081 1792 1081 1728 1081C1664 1081 1600 1081 1536 1081C1472 1081 1408 1081 1344 1081C1280 1081 1216 1081 1152 1081C1088 1081 1024 1081 960 1081C896 1081 832 1081 768 1081C704 1081 640 1081 576 1081C512 1081 448 1081 384 1081C320 1081 256 1081 192 1081C128 1081 64 1081 32 1081L0 1081Z" fill="#1d96d1"></path><path d="M0 995L32 988.2C64 981.3 128 967.7 192 960.8C256 954 320 954 384 955.8C448 957.7 512 961.3 576 967.7C640 974 704 983 768 980.7C832 978.3 896 964.7 960 963.3C1024 962 1088 973 1152 972.7C1216 972.3 1280 960.7 1344 955.5C1408 950.3 1472 951.7 1536 951.5C1600 951.3 1664 949.7 1728 951C1792 952.3 1856 956.7 1888 958.8L1920 961L1920 1081L1888 1081C1856 1081 1792 1081 1728 1081C1664 1081 1600 1081 1536 1081C1472 1081 1408 1081 1344 1081C1280 1081 1216 1081 1152 1081C1088 1081 1024 1081 960 1081C896 1081 832 1081 768 1081C704 1081 640 1081 576 1081C512 1081 448 1081 384 1081C320 1081 256 1081 192 1081C128 1081 64 1081 32 1081L0 1081Z" fill="#1dace8"></path><path d="M0 1002L32 1005C64 1008 128 1014 192 1019.3C256 1024.7 320 1029.3 384 1030.7C448 1032 512 1030 576 1027.8C640 1025.7 704 1023.3 768 1022.5C832 1021.7 896 1022.3 960 1019.7C1024 1017 1088 1011 1152 1010.7C1216 1010.3 1280 1015.7 1344 1020.5C1408 1025.3 1472 1029.7 1536 1030.3C1600 1031 1664 1028 1728 1026.2C1792 1024.3 1856 1023.7 1888 1023.3L1920 1023L1920 1081L1888 1081C1856 1081 1792 1081 1728 1081C1664 1081 1600 1081 1536 1081C1472 1081 1408 1081 1344 1081C1280 1081 1216 1081 1152 1081C1088 1081 1024 1081 960 1081C896 1081 832 1081 768 1081C704 1081 640 1081 576 1081C512 1081 448 1081 384 1081C320 1081 256 1081 192 1081C128 1081 64 1081 32 1081L0 1081Z" fill="#1cc2ff"></path></svg>