<svg id="visual" viewBox="0 0 1920 1080" width="1920" height="1080" xmlns="http://www.w3.org/2000/svg" xmlns:xlink="http://www.w3.org/1999/xlink" version="1.1"><rect x="0" y="0" width="1920" height="1080" fill="#001220"></rect><path d="M0 799L40 786.3C80 773.7 160 748.3 240 739.3C320 730.3 400 737.7 480 754.7C560 771.7 640 798.3 720 801.7C800 805 880 785 960 788.3C1040 791.7 1120 818.3 1200 806.7C1280 795 1360 745 1440 732.5C1520 720 1600 745 1680 733.8C1760 722.7 1840 675.3 1880 651.7L1920 628L1920 1081L1880 1081C1840 1081 1760 1081 1680 1081C1600 1081 1520 1081 1440 1081C1360 1081 1280 1081 1200 1081C1120 1081 1040 1081 960 1081C880 1081 800 1081 720 1081C640 1081 560 1081 480 1081C400 1081 320 1081 240 1081C160 1081 80 1081 40 1081L0 1081Z" fill="#3f125c"></path><path d="M0 897L40 879.2C80 861.3 160 825.7 240 794.7C320 763.7 400 737.3 480 724C560 710.7 640 710.3 720 714.7C800 719 880 728 960 744.5C1040 761 1120 785 1200 786C1280 787 1360 765 1440 750.5C1520 736 1600 729 1680 748C1760 767 1840 812 1880 834.5L1920 857L1920 1081L1880 1081C1840 1081 1760 1081 1680 1081C1600 1081 1520 1081 1440 1081C1360 1081 1280 1081 1200 1081C1120 1081 1040 1081 960 1081C880 1081 800 1081 720 1081C640 1081 560 1081 480 1081C400 1081 320 1081 240 1081C160 1081 80 1081 40 1081L0 1081Z" fill="#571262"></path><path d="M0 798L40 791.3C80 784.7 160 771.3 240 783.7C320 796 400 834 480 858C560 882 640 892 720 881C800 870 880 838 960 810.8C1040 783.7 1120 761.3 1200 779C1280 796.7 1360 854.3 1440 857.8C1520 861.3 1600 810.7 1680 795.8C1760 781 1840 802 1880 812.5L1920 823L1920 1081L1880 1081C1840 1081 1760 1081 1680 1081C1600 1081 1520 1081 1440 1081C1360 1081 1280 1081 1200 1081C1120 1081 1040 1081 960 1081C880 1081 800 1081 720 1081C640 1081 560 1081 480 1081C400 1081 320 1081 240 1081C160 1081 80 1081 40 1081L0 1081Z" fill="#6f1267"></path><path d="M0 921L40 902.8C80 884.7 160 848.3 240 837C320 825.7 400 839.3 480 839.2C560 839 640 825 720 831.8C800 838.7 880 866.3 960 873.3C1040 880.3 1120 866.7 1200 854.8C1280 843 1360 833 1440 831C1520 829 1600 835 1680 844.3C1760 853.7 1840 866.3 1880 872.7L1920 879L1920 1081L1880 1081C1840 1081 1760 1081 1680 1081C1600 1081 1520 1081 1440 1081C1360 1081 1280 1081 1200 1081C1120 1081 1040 1081 960 1081C880 1081 800 1081 720 1081C640 1081 560 1081 480 1081C400 1081 320 1081 240 1081C160 1081 80 1081 40 1081L0 1081Z" fill="#86136a"></path><path d="M0 974L40 960.5C80 947 160 920 240 912.8C320 905.7 400 918.3 480 916.5C560 914.7 640 898.3 720 903.5C800 908.7 880 935.3 960 953.7C1040 972 1120 982 1200 983.7C1280 985.3 1360 978.7 1440 969.7C1520 960.7 1600 949.3 1680 948C1760 946.7 1840 955.3 1880 959.7L1920 964L1920 1081L1880 1081C1840 1081 1760 1081 1680 1081C1600 1081 1520 1081 1440 1081C1360 1081 1280 1081 1200 1081C1120 1081 1040 1081 960 1081C880 1081 800 1081 720 1081C640 1081 560 1081 480 1081C400 1081 320 1081 240 1081C160 1081 80 1081 40 1081L0 1081Z" fill="#9c156b"></path><path d="M0 922L40 927.5C80 933 160 944 240 949.7C320 955.3 400 955.7 480 956.2C560 956.7 640 957.3 720 952.5C800 947.7 880 937.3 960 942.7C1040 948 1120 969 1200 982.2C1280 995.3 1360 1000.7 1440 996.8C1520 993 1600 980 1680 976.8C1760 973.7 1840 980.3 1880 983.7L1920 987L1920 1081L1880 1081C1840 1081 1760 1081 1680 1081C1600 1081 1520 1081 1440 1081C1360 1081 1280 1081 1200 1081C1120 1081 1040 1081 960 1081C880 1081 800 1081 720 1081C640 1081 560 1081 480 1081C400 1081 320 1081 240 1081C160 1081 80 1081 40 1081L0 1081Z" fill="#b21a6a"></path><path d="M0 1015L40 1012.5C80 1010 160 1005 240 1011C320 1017 400 1034 480 1029.8C560 1025.7 640 1000.3 720 992.8C800 985.3 880 995.7 960 1003.2C1040 1010.7 1120 1015.3 1200 1010C1280 1004.7 1360 989.3 1440 986.5C1520 983.7 1600 993.3 1680 1002C1760 1010.7 1840 1018.3 1880 1022.2L1920 1026L1920 1081L1880 1081C1840 1081 1760 1081 1680 1081C1600 1081 1520 1081 1440 1081C1360 1081 1280 1081 1200 1081C1120 1081 1040 1081 960 1081C880 1081 800 1081 720 1081C640 1081 560 1081 480 1081C400 1081 320 1081 240 1081C160 1081 80 1081 40 1081L0 1081Z" fill="#c62368"></path></svg>